<svg xmlns="http://www.w3.org/2000/svg" xmlns:xlink="http://www.w3.org/1999/xlink" width="500" zoomAndPan="magnify" viewBox="0 0 375 187.499995" height="250" preserveAspectRatio="xMidYMid meet" version="1.0"><defs><g/><clipPath id="4663836626"><rect x="0" width="363" y="0" height="153"/></clipPath></defs><g transform="matrix(1, 0, 0, 1, 7, 16)"><g clip-path="url(#4663836626)"><g fill="#1b1b1b" fill-opacity="1"><g transform="translate(0.930274, 109.410338)"><g><path d="M 35.4375 -68.609375 C 39.039062 -68.609375 42.441406 -67.757812 45.640625 -66.0625 C 47.441406 -65.257812 48.691406 -64.859375 49.390625 -64.859375 C 51.296875 -64.859375 52.847656 -66.109375 54.046875 -68.609375 L 56.75 -68.609375 L 52.703125 -45.796875 L 50 -45.796875 C 50 -52.296875 48.722656 -57.195312 46.171875 -60.5 C 43.617188 -63.8125 40.488281 -65.46875 36.78125 -65.46875 C 34.082031 -65.46875 31.851562 -64.613281 30.09375 -62.90625 C 28.34375 -61.207031 27.46875 -59.304688 27.46875 -57.203125 C 27.46875 -54.796875 28.164062 -52.367188 29.5625 -49.921875 C 30.96875 -47.472656 33.175781 -44.242188 36.1875 -40.234375 C 39.582031 -35.828125 42.179688 -31.972656 43.984375 -28.671875 C 45.785156 -25.367188 46.6875 -21.914062 46.6875 -18.3125 C 46.6875 -14.914062 45.757812 -11.6875 43.90625 -8.625 C 42.0625 -5.570312 39.4375 -3.070312 36.03125 -1.125 C 32.625 0.820312 28.671875 1.796875 24.171875 1.796875 C 21.566406 1.796875 18.414062 1.144531 14.71875 -0.15625 C 12.113281 -0.945312 10.410156 -1.34375 9.609375 -1.34375 C 7.703125 -1.34375 6 -0.296875 4.5 1.796875 L 1.34375 1.796875 L 5.703125 -22.21875 L 8.703125 -22.21875 C 9.109375 -16.21875 10.335938 -11.238281 12.390625 -7.28125 C 14.441406 -3.320312 18.269531 -1.34375 23.875 -1.34375 C 27.78125 -1.34375 30.832031 -2.671875 33.03125 -5.328125 C 35.226562 -7.984375 36.328125 -10.757812 36.328125 -13.65625 C 36.328125 -15.757812 35.726562 -17.9375 34.53125 -20.1875 C 33.332031 -22.445312 31.976562 -24.675781 30.46875 -26.875 C 28.96875 -29.070312 27.96875 -30.523438 27.46875 -31.234375 L 25.21875 -34.53125 C 22.613281 -38.132812 20.6875 -41.238281 19.4375 -43.84375 C 18.1875 -46.445312 17.5625 -49.25 17.5625 -52.25 C 17.5625 -55.851562 18.507812 -58.878906 20.40625 -61.328125 C 22.3125 -63.785156 24.664062 -65.613281 27.46875 -66.8125 C 30.269531 -68.007812 32.925781 -68.609375 35.4375 -68.609375 Z M 35.4375 -68.609375 "/></g></g></g><g fill="#1b1b1b" fill-opacity="1"><g transform="translate(48.222953, 109.410338)"><g><path d="M 40.84375 -85.28125 L 43.6875 -85.28125 L 38.4375 -66.96875 L 48.953125 -66.96875 L 47.75 -62.3125 L 37.078125 -62.3125 L 23.71875 -15.609375 C 22.519531 -11.609375 21.921875 -8.90625 21.921875 -7.5 C 21.921875 -5.695312 22.671875 -4.796875 24.171875 -4.796875 C 25.472656 -4.796875 27.070312 -5.519531 28.96875 -6.96875 C 30.875 -8.425781 32.648438 -10.054688 34.296875 -11.859375 C 35.953125 -13.660156 36.832031 -14.765625 36.9375 -15.171875 L 39.78125 -15.171875 C 35.882812 -8.960938 31.984375 -4.582031 28.078125 -2.03125 C 24.171875 0.519531 20.617188 1.796875 17.421875 1.796875 C 15.710938 1.796875 14.15625 1.144531 12.75 -0.15625 C 11.351562 -1.457031 10.65625 -3.457031 10.65625 -6.15625 C 10.65625 -7.957031 11.257812 -11.109375 12.46875 -15.609375 L 25.828125 -62.3125 L 14.5625 -62.3125 L 15.609375 -65.609375 C 21.515625 -66.609375 26.34375 -68.882812 30.09375 -72.4375 C 33.851562 -75.988281 37.4375 -80.269531 40.84375 -85.28125 Z M 40.84375 -85.28125 "/></g></g></g><g fill="#1b1b1b" fill-opacity="1"><g transform="translate(87.708574, 109.410338)"><g><path d="M 25.828125 -68.609375 C 27.421875 -68.609375 28.816406 -68.007812 30.015625 -66.8125 C 31.222656 -65.613281 31.828125 -64.113281 31.828125 -62.3125 C 31.828125 -60.207031 31.328125 -57.453125 30.328125 -54.046875 L 20.125 -18.921875 C 19.125 -14.910156 18.625 -12.109375 18.625 -10.515625 C 18.625 -9.410156 19 -8.53125 19.75 -7.875 C 20.5 -7.226562 21.320312 -6.90625 22.21875 -6.90625 C 25.019531 -6.90625 28.945312 -9.40625 34 -14.40625 C 39.0625 -19.414062 43.894531 -25.597656 48.5 -32.953125 C 53.101562 -40.304688 56.304688 -47.238281 58.109375 -53.75 L 61.859375 -66.96875 L 73.125 -66.96875 L 58.40625 -15.921875 C 57.5 -12.316406 57.046875 -9.8125 57.046875 -8.40625 C 57.046875 -7.800781 57.269531 -7.25 57.71875 -6.75 C 58.175781 -6.25 58.65625 -6 59.15625 -6 C 60.351562 -6 61.953125 -7 63.953125 -9 C 65.960938 -11.007812 67.816406 -13.316406 69.515625 -15.921875 L 71.609375 -14.265625 C 68.804688 -10.160156 65.578125 -6.457031 61.921875 -3.15625 C 58.273438 0.144531 54.703125 1.796875 51.203125 1.796875 C 49.296875 1.796875 47.890625 1.070312 46.984375 -0.375 C 46.085938 -1.820312 45.640625 -3.398438 45.640625 -5.109375 C 45.640625 -9.109375 46.890625 -15.3125 49.390625 -23.71875 L 52.09375 -32.734375 L 51.796875 -32.875 C 46.492188 -23.96875 40.488281 -15.960938 33.78125 -8.859375 C 27.070312 -1.753906 21.015625 1.796875 15.609375 1.796875 C 9.910156 1.796875 7.0625 -1.601562 7.0625 -8.40625 C 7.0625 -10.101562 7.359375 -12.203125 7.953125 -14.703125 C 8.554688 -17.210938 9.609375 -21.070312 11.109375 -26.28125 L 18.015625 -50.296875 C 18.515625 -51.992188 18.890625 -53.367188 19.140625 -54.421875 C 19.390625 -55.472656 19.515625 -56.5 19.515625 -57.5 C 19.515625 -58.707031 19.289062 -59.535156 18.84375 -59.984375 C 18.394531 -60.429688 17.921875 -60.65625 17.421875 -60.65625 C 15.816406 -60.65625 14.238281 -59.828125 12.6875 -58.171875 C 11.132812 -56.523438 9.304688 -54.148438 7.203125 -51.046875 L 5.109375 -52.546875 C 7.203125 -56.347656 10.203125 -59.972656 14.109375 -63.421875 C 18.015625 -66.878906 21.921875 -68.609375 25.828125 -68.609375 Z M 25.828125 -68.609375 "/></g></g></g><g fill="#1b1b1b" fill-opacity="1"><g transform="translate(152.266841, 109.410338)"><g><path d="M 57.953125 -14.109375 C 57.054688 -10.804688 56.609375 -8.601562 56.609375 -7.5 C 56.609375 -6.90625 56.78125 -6.40625 57.125 -6 C 57.476562 -5.601562 57.90625 -5.40625 58.40625 -5.40625 C 59.601562 -5.40625 61.351562 -6.429688 63.65625 -8.484375 C 65.957031 -10.535156 68.109375 -13.0625 70.109375 -16.0625 L 72.21875 -14.109375 C 69.113281 -9.609375 65.507812 -5.832031 61.40625 -2.78125 C 57.300781 0.269531 53.898438 1.796875 51.203125 1.796875 C 49.296875 1.796875 47.789062 1.097656 46.6875 -0.296875 C 45.59375 -1.703125 45.046875 -3.304688 45.046875 -5.109375 C 45.046875 -6.703125 45.242188 -8.425781 45.640625 -10.28125 C 46.046875 -12.132812 46.394531 -13.410156 46.6875 -14.109375 L 50.140625 -25.828125 L 49.84375 -26.125 C 45.039062 -19.019531 39.785156 -12.585938 34.078125 -6.828125 C 28.378906 -1.078125 22.925781 1.796875 17.71875 1.796875 C 13.507812 1.796875 10.226562 -0.148438 7.875 -4.046875 C 5.53125 -7.953125 4.359375 -12.257812 4.359375 -16.96875 C 4.359375 -24.570312 6.679688 -32.425781 11.328125 -40.53125 C 15.984375 -48.644531 21.789062 -55.351562 28.75 -60.65625 C 35.707031 -65.957031 42.390625 -68.609375 48.796875 -68.609375 C 53.398438 -68.609375 57.300781 -66.507812 60.5 -62.3125 L 68.765625 -91.140625 C 69.660156 -94.335938 70.109375 -96.640625 70.109375 -98.046875 C 70.109375 -99.546875 69.507812 -100.492188 68.3125 -100.890625 C 67.113281 -101.296875 65.515625 -101.5 63.515625 -101.5 L 59.3125 -101.34375 L 59.15625 -103.59375 L 81.984375 -107.65625 L 84.671875 -107.65625 Z M 29.28125 -51.640625 C 25.675781 -46.535156 22.722656 -40.90625 20.421875 -34.75 C 18.117188 -28.601562 16.96875 -22.972656 16.96875 -17.859375 C 16.96875 -14.054688 17.640625 -11.253906 18.984375 -9.453125 C 20.335938 -7.648438 22.164062 -6.75 24.46875 -6.75 C 28.269531 -6.75 32.773438 -9.550781 37.984375 -15.15625 C 43.191406 -20.769531 47.695312 -27.453125 51.5 -35.203125 C 55.300781 -42.960938 57.203125 -49.796875 57.203125 -55.703125 C 57.203125 -59.109375 56.222656 -61.632812 54.265625 -63.28125 C 52.316406 -64.9375 50.289062 -65.765625 48.1875 -65.765625 C 45.289062 -65.765625 42.164062 -64.488281 38.8125 -61.9375 C 35.457031 -59.382812 32.28125 -55.953125 29.28125 -51.640625 Z M 29.28125 -51.640625 "/></g></g></g><g fill="#1b1b1b" fill-opacity="1"><g transform="translate(216.825107, 109.410338)"><g><path d="M 35.734375 -98.640625 C 37.835938 -98.640625 39.640625 -97.890625 41.140625 -96.390625 C 42.640625 -94.890625 43.390625 -93.140625 43.390625 -91.140625 C 43.390625 -89.035156 42.640625 -87.234375 41.140625 -85.734375 C 39.640625 -84.234375 37.835938 -83.484375 35.734375 -83.484375 C 33.734375 -83.484375 31.976562 -84.234375 30.46875 -85.734375 C 28.96875 -87.234375 28.21875 -89.035156 28.21875 -91.140625 C 28.21875 -93.140625 28.96875 -94.890625 30.46875 -96.390625 C 31.976562 -97.890625 33.734375 -98.640625 35.734375 -98.640625 Z M 21.015625 -13.359375 C 20.210938 -10.753906 19.8125 -8.953125 19.8125 -7.953125 C 19.8125 -6.359375 20.664062 -5.5625 22.375 -5.5625 C 23.570312 -5.5625 25.242188 -6.484375 27.390625 -8.328125 C 29.546875 -10.179688 31.773438 -12.910156 34.078125 -16.515625 L 36.484375 -15.015625 C 33.179688 -9.910156 29.476562 -5.832031 25.375 -2.78125 C 21.269531 0.269531 17.515625 1.796875 14.109375 1.796875 C 12.109375 1.796875 10.582031 1.144531 9.53125 -0.15625 C 8.476562 -1.457031 7.953125 -3.207031 7.953125 -5.40625 C 7.953125 -7.007812 8.253906 -8.859375 8.859375 -10.953125 L 20.875 -52.25 C 21.570312 -54.75 21.921875 -56.5 21.921875 -57.5 C 21.921875 -58.800781 21.46875 -59.953125 20.5625 -60.953125 C 19.664062 -61.953125 18.316406 -62.453125 16.515625 -62.453125 C 15.816406 -62.453125 13.914062 -62.203125 10.8125 -61.703125 L 11.5625 -64.265625 L 34.375 -68.609375 L 36.9375 -68.609375 Z M 21.015625 -13.359375 "/></g></g></g><g fill="#1b1b1b" fill-opacity="1"><g transform="translate(247.002337, 109.410338)"><g><path d="M 48.640625 -68.609375 C 52.847656 -68.609375 56.378906 -67.554688 59.234375 -65.453125 C 62.085938 -63.359375 63.515625 -60.660156 63.515625 -57.359375 C 63.515625 -54.148438 62.007812 -50.492188 59 -46.390625 C 56 -42.285156 51.117188 -38.65625 44.359375 -35.5 C 37.609375 -32.351562 29.03125 -30.628906 18.625 -30.328125 C 18.019531 -28.328125 17.71875 -25.875 17.71875 -22.96875 C 17.71875 -16.863281 19.367188 -12.4375 22.671875 -9.6875 C 25.972656 -6.9375 29.625 -5.5625 33.625 -5.5625 C 40.332031 -5.5625 47.140625 -8.910156 54.046875 -15.609375 L 56 -13.8125 C 45.289062 -3.40625 34.929688 1.796875 24.921875 1.796875 C 20.816406 1.796875 17.238281 0.769531 14.1875 -1.28125 C 11.132812 -3.332031 8.832031 -6.007812 7.28125 -9.3125 C 5.726562 -12.613281 4.953125 -16.015625 4.953125 -19.515625 C 4.953125 -26.523438 6.976562 -33.882812 11.03125 -41.59375 C 15.082031 -49.300781 20.488281 -55.726562 27.25 -60.875 C 34.007812 -66.03125 41.140625 -68.609375 48.640625 -68.609375 Z M 19.515625 -33.1875 C 26.328125 -33.6875 31.832031 -34.835938 36.03125 -36.640625 C 40.132812 -38.441406 43.460938 -40.765625 46.015625 -43.609375 C 48.566406 -46.460938 50.394531 -49.265625 51.5 -52.015625 C 52.601562 -54.773438 53.15625 -57.054688 53.15625 -58.859375 C 53.15625 -60.554688 52.523438 -62.128906 51.265625 -63.578125 C 50.015625 -65.035156 48.238281 -65.765625 45.9375 -65.765625 C 41.9375 -65.765625 38.054688 -63.910156 34.296875 -60.203125 C 30.546875 -56.503906 27.34375 -52.101562 24.6875 -47 C 22.039062 -41.894531 20.316406 -37.289062 19.515625 -33.1875 Z M 19.515625 -33.1875 "/></g></g></g><g fill="#1b1b1b" fill-opacity="1"><g transform="translate(302.252184, 109.410338)"><g><path d="M 31.828125 -68.609375 L 22.671875 -29.734375 C 24.472656 -34.128906 27.050781 -39.378906 30.40625 -45.484375 C 33.757812 -51.597656 37.335938 -56.976562 41.140625 -61.625 C 44.941406 -66.28125 48.394531 -68.609375 51.5 -68.609375 C 52.800781 -68.609375 53.953125 -68.15625 54.953125 -67.25 C 55.953125 -66.351562 56.453125 -65.003906 56.453125 -63.203125 C 56.453125 -60.398438 55.875 -57.546875 54.71875 -54.640625 C 53.570312 -51.742188 51.648438 -50.296875 48.953125 -50.296875 C 47.546875 -50.296875 46.59375 -50.644531 46.09375 -51.34375 C 45.59375 -52.050781 45.191406 -53.101562 44.890625 -54.5 C 44.691406 -55.5 44.46875 -56.222656 44.21875 -56.671875 C 43.96875 -57.128906 43.492188 -57.359375 42.796875 -57.359375 C 41.085938 -57.359375 38.679688 -54.65625 35.578125 -49.25 C 32.472656 -43.84375 29.421875 -37.632812 26.421875 -30.625 C 23.421875 -23.625 21.421875 -18.367188 20.421875 -14.859375 L 16.21875 0 L 5.109375 0 L 16.96875 -48.5 C 17.0625 -48.800781 17.359375 -50.023438 17.859375 -52.171875 C 18.367188 -54.328125 18.625 -56.253906 18.625 -57.953125 C 18.625 -59.554688 18.171875 -60.609375 17.265625 -61.109375 C 16.367188 -61.609375 15.164062 -61.859375 13.65625 -61.859375 C 12.5625 -61.859375 11.585938 -61.804688 10.734375 -61.703125 C 9.878906 -61.609375 9.203125 -61.507812 8.703125 -61.40625 L 9.453125 -64.265625 L 29.28125 -68.609375 Z M 31.828125 -68.609375 "/></g></g></g></g></g></svg>